Coordinates
version=1
nRows=17
nColumns=34
inDegrees=yes

Units are S.I. units (second, meters, Newtons, ...)
If the header above contains a line with 'inDegrees', this indicates whether rotational values are in degrees (yes) or radians (no).

endheader
time	pelvis_tilt	pelvis_list	pelvis_rotation	pelvis_tx	pelvis_ty	pelvis_tz	hip_flexion_r	hip_adduction_r	hip_rotation_r	knee_angle_r	ankle_angle_r	subtalar_angle_r	mtp_angle_r	hip_flexion_l	hip_adduction_l	hip_rotation_l	knee_angle_l	ankle_angle_l	subtalar_angle_l	mtp_angle_l	lumbar_extension	lumbar_bending	lumbar_rotation	arm_flex_r	arm_add_r	arm_rot_r	elbow_flex_r	pro_sup_r	arm_flex_l	arm_add_l	arm_rot_l	elbow_flex_l	pro_sup_l
      6.70000000	     -4.58872919	     -0.94739229	      4.33325037	      1.24274394	      1.10788694	      0.18721261	      2.76326263	      2.74688058	    -14.38205599	      5.78562060	      8.07516874	     -9.20250388	      0.00000000	      3.69106454	     -0.07125306	     -8.31200585	      1.09488434	      6.54679515	     -0.20996903	      0.00000000	     11.97320199	     -0.34403252	      1.61895772	      1.35101148	     -4.59915299	     12.19079514	     39.06462941	     99.74651968	     -2.21356740	     -7.19329731	     13.79630772	     41.86715276	     92.37004195
      6.71666670	     -4.64457635	     -1.01036520	      4.10474113	      1.23425012	      1.11042143	      0.18736370	      3.09516612	      2.76357481	    -14.25464515	      5.80997155	      8.44969829	     -9.02347161	      0.00000000	      3.89418416	     -0.14534103	     -8.32336911	      1.38842058	      6.93645186	     -0.28304596	      0.00000000	     11.72697581	     -0.28175699	      1.62230991	      2.10514542	     -4.47962111	     12.62026659	     39.74476786	     99.66466801	     -1.18328960	     -7.22813071	     14.14025948	     42.60070570	     92.39764351
      6.73333330	     -4.63727487	     -1.08091269	      3.87448657	      1.22938557	      1.11135270	      0.18639655	      3.38152134	      2.79202044	    -14.07352474	      5.80476241	      8.68472219	     -8.34644529	      0.00000000	      4.01476087	     -0.22277913	     -8.29006663	      1.50445016	      6.87125382	     -0.12505953	      0.00000000	     11.31969489	     -0.22422247	      1.64653158	      2.81999013	     -4.54508246	     13.71657992	     40.82994629	     99.44786023	     -0.09098692	     -7.46530642	     15.08147267	     43.77824789	     92.50435149
      6.75000000	     -4.66583580	     -1.11167781	      3.64091489	      1.23168710	      1.10963982	      0.18781165	      3.60244538	      2.80274163	    -14.25604603	      5.83115929	      8.46002335	     -8.18334268	      0.00000000	      4.14306975	     -0.19778494	     -8.57171773	      1.58255445	      6.92116097	     -0.08460440	      0.00000000	     11.06856952	     -0.14604043	      1.66129731	      3.72783068	     -4.33557021	     14.12010652	     41.28897345	     99.31444221	      1.03691679	     -7.35298114	     15.33885497	     44.34472274	     92.53181554
      6.76666670	     -4.74794883	     -1.12723733	      3.35363767	      1.22487438	      1.11026315	      0.18822229	      4.04037765	      2.81760957	    -13.98465484	      5.99980739	      8.49601697	     -7.98458076	      0.00000000	      4.49370357	     -0.18737817	     -8.63057301	      1.67516976	      6.98555153	     -0.11384559	      0.00000000	     10.77007015	     -0.13990637	      1.68473748	      4.86107018	     -3.97086591	     14.35809135	     41.76650337	     99.26275969	      2.40278761	     -7.26596408	     15.43559805	     44.88894338	     92.54912766
      6.78333330	     -4.56082177	     -1.12870080	      3.15312888	      1.22271392	      1.11447031	      0.18841714	      4.16980989	      2.82558149	    -13.84908426	      6.13027739	      8.65982656	     -7.62863054	      0.00000000	      4.56928789	     -0.23880843	     -8.83265353	      1.85605102	      7.07541983	     -0.17772142	      0.00000000	     10.04543731	     -0.23235697	      1.92005642	      6.01183420	     -4.05631333	     16.09559811	     42.87608412	     98.93787462	      4.08308425	     -7.49795663	     16.89810943	     46.23628125	     92.75695217
      6.80000000	     -4.68602758	     -1.13721703	      3.00609275	      1.21724101	      1.11706430	      0.18785133	      4.57665262	      2.81830917	    -13.77537218	      6.06230236	      8.34291227	     -7.38958416	      0.00000000	      5.13591893	     -0.28760446	     -9.04759743	      2.28208936	      6.72056587	     -0.18765481	      0.00000000	      9.63903077	     -0.19926172	      1.77954097	      7.29220085	     -3.53181765	     16.30042235	     43.35018660	     98.86271559	      5.77859010	     -7.27842486	     16.94861370	     46.71753231	     92.77089620
      6.81666670	     -4.32673940	     -1.15244785	      2.87268603	      1.21011757	      1.11946725	      0.18671588	      4.50707739	      2.83001414	    -13.83485949	      5.92483468	      8.13084549	     -7.14310218	      0.00000000	      5.23902031	     -0.35905465	     -9.12908759	      2.70708218	      6.43572762	     -0.71697163	      0.00000000	      8.51496315	     -0.17784322	      1.86854004	      9.10701746	     -3.59088506	     18.51781418	     44.03065254	     98.14655913	      8.31029249	     -7.34690463	     18.94377207	     47.15996198	     93.07858902
      6.83333330	     -4.38441500	     -1.10993365	      2.75865783	      1.21037946	      1.11958475	      0.18594363	      4.84236798	      2.73379229	    -13.87884033	      6.00728627	      7.71193404	     -6.93395139	      0.00000000	      5.73663561	     -0.32266429	     -9.38629097	      3.12469588	      6.00466325	     -0.70414200	      0.00000000	      8.10888208	     -0.22039815	      1.81491206	     10.34956842	     -3.00001234	     18.66673833	     44.40166803	     98.05760354	      9.98917005	     -6.96070212	     18.94859849	     47.58709916	     93.08599384
      6.85000000	     -4.31444390	     -1.04110156	      2.59552529	      1.21173047	      1.11931539	      0.18562045	      5.01450406	      2.57494944	    -14.09203639	      6.26927865	      7.35347177	     -6.80580180	      0.00000000	      5.97288388	     -0.26660749	     -9.77503167	      3.50919084	      5.69454449	     -0.84642079	      0.00000000	      7.62843525	     -0.29133437	      1.85375860	     11.50652157	     -2.45465222	     18.98505357	     44.77305585	     97.97723618	     11.60828799	     -6.56759977	     19.08078004	     47.95188306	     93.11202246
      6.86666670	     -3.35149629	     -0.93256023	      2.48660839	      1.21583968	      1.12451845	      0.18410171	      3.91637941	      2.43451902	    -14.28521322	      6.13275573	      7.28431645	     -6.36843393	      0.00000000	      4.75043249	     -0.11790995	    -10.03835938	      3.17910556	      5.22750867	     -1.05864948	      0.00000000	      6.18179065	     -0.38464724	      2.09444815	     12.58860163	     -2.44302673	     20.74150247	     45.59424525	     97.55336602	     13.66759591	     -6.29514778	     20.46435901	     48.10999652	     93.31553198
      6.88333330	     -3.40774721	     -0.95649897	      2.42712702	      1.21673551	      1.12199852	      0.18301036	      3.98729788	      2.34940999	    -14.46517864	      6.20185048	      7.03511941	     -6.28661641	      0.00000000	      4.82408094	     -0.08826414	    -10.29004181	      3.35363574	      5.13412046	     -1.08863446	      0.00000000	      6.07679648	     -0.31823404	      1.97691794	     13.39815875	     -1.89067761	     20.96179303	     45.94868228	     97.46164065	     14.92710541	     -5.93687501	     20.57524450	     48.47718869	     93.33111958
      6.90000000	     -2.77517638	     -0.95138168	      2.31513330	      1.21104276	      1.12686564	      0.18188385	      3.38108720	      2.29126054	    -14.78510567	      6.16289804	      6.86551769	     -6.32201827	      0.00000000	      4.05123131	      0.00235171	    -10.47098213	      3.14656160	      5.23333712	     -1.03491402	      0.00000000	      4.95943017	     -0.26404846	      2.12290185	     14.37936015	     -1.74051575	     22.35206230	     46.56721720	     96.94826672	     16.78047623	     -5.72306313	     21.75392599	     48.93364755	     93.47333731
      6.91666670	     -2.87568902	     -0.99018393	      2.32447783	      1.21264774	      1.12941858	      0.17719943	      3.60191853	      2.17934868	    -14.72356741	      6.24356747	      6.67817127	     -6.17761953	      0.00000000	      4.17412492	      0.10732048	    -10.58334070	      3.01603440	      5.06420611	     -0.99070665	      0.00000000	      4.82375527	     -0.11187214	      1.93751859	     15.22652819	     -1.13436982	     22.52261473	     46.86755274	     96.86116041	     18.10598507	     -5.25242090	     21.84517263	     49.27414209	     93.48221917
      6.93333330	     -2.12939371	     -0.89905618	      2.26478957	      1.21386686	      1.13512394	      0.17588253	      2.60736673	      1.98835152	    -14.89846426	      5.98832602	      6.55308704	     -5.68164522	      0.00000000	      3.05108647	      0.36185697	    -10.79072201	      2.41466103	      4.70176173	     -0.69573231	      0.00000000	      3.64623682	     -0.10159531	      1.89963133	     16.39573054	     -0.82784233	     24.03656291	     46.94132588	     96.28175804	     20.07034479	     -4.97876497	     23.40343655	     49.11591963	     93.62574962
      6.95000000	     -1.80874948	     -0.88138949	      2.30225922	      1.21347078	      1.13210573	      0.17408260	      2.18912062	      1.84048090	    -15.03050306	      5.98695955	      6.69987658	     -5.31857758	      0.00000000	      2.55912667	      0.52920517	    -10.86077678	      2.18799521	      4.88071738	     -0.55099246	      0.00000000	      3.01634494	     -0.00710341	      1.86391962	     17.48898358	     -0.44050646	     25.21652063	     47.03253207	     95.53581858	     21.93604975	     -4.67697635	     24.84956580	     48.95319654	     93.66642096
      6.96666670	     -1.55577325	     -0.84308405	      2.41628642	      1.21297542	      1.13808115	      0.17217246	      1.79146001	      1.69897149	    -15.28153485	      5.81679424	      6.53635929	     -5.12795852	      0.00000000	      2.10255170	      0.73402394	    -10.92349239	      1.76620175	      4.63893457	     -0.24880794	      0.00000000	      2.46771212	      0.00810213	      1.84913277	     18.57128489	      0.11141555	     25.70624774	     47.04077332	     95.09434124	     23.34472709	     -4.15995109	     25.66990265	     49.10244962	     93.63987636
